<mxfile host="app.diagrams.net" modified="2023-05-04T17:12:23.743Z" agent="Mozilla/5.0 (X11; Linux x86_64; rv:109.0) Gecko/20100101 Firefox/112.0" etag="nTGDnxUdI7vVTRERn4YU" version="21.2.7" type="github">
  <diagram id="R2lEEEUBdFMjLlhIrx00" name="Page-1">
    <mxGraphModel dx="1808" dy="450" grid="1" gridSize="10" guides="1" tooltips="1" connect="1" arrows="1" fold="1" page="1" pageScale="1" pageWidth="850" pageHeight="1100" math="0" shadow="0" extFonts="Permanent Marker^https://fonts.googleapis.com/css?family=Permanent+Marker">
      <root>
        <mxCell id="0" />
        <mxCell id="1" parent="0" />
        <mxCell id="I5zNdM9nA91o0Woqpkqp-106" value="(1,1)" style="edgeStyle=orthogonalEdgeStyle;shape=connector;rounded=0;orthogonalLoop=1;jettySize=auto;html=1;entryX=1;entryY=0.5;entryDx=0;entryDy=0;labelBackgroundColor=default;strokeColor=default;fontFamily=Helvetica;fontSize=10;fontColor=default;endArrow=none;endFill=0;movable=1;resizable=1;rotatable=1;deletable=1;editable=1;locked=0;connectable=1;" parent="1" source="I5zNdM9nA91o0Woqpkqp-105" target="I5zNdM9nA91o0Woqpkqp-102" edge="1">
          <mxGeometry x="1" y="15" relative="1" as="geometry">
            <Array as="points">
              <mxPoint x="325" y="370" />
            </Array>
            <mxPoint x="-15" y="-15" as="offset" />
          </mxGeometry>
        </mxCell>
        <mxCell id="I5zNdM9nA91o0Woqpkqp-212" style="edgeStyle=orthogonalEdgeStyle;shape=connector;rounded=0;orthogonalLoop=1;jettySize=auto;html=1;entryX=0;entryY=0.5;entryDx=0;entryDy=0;labelBackgroundColor=default;strokeColor=default;fontFamily=Helvetica;fontSize=11;fontColor=default;endArrow=none;endFill=0;" parent="1" source="I5zNdM9nA91o0Woqpkqp-206" target="I5zNdM9nA91o0Woqpkqp-111" edge="1">
          <mxGeometry relative="1" as="geometry">
            <Array as="points">
              <mxPoint x="430" y="540" />
              <mxPoint x="430" y="540" />
            </Array>
          </mxGeometry>
        </mxCell>
        <mxCell id="I5zNdM9nA91o0Woqpkqp-44" style="edgeStyle=orthogonalEdgeStyle;rounded=0;orthogonalLoop=1;jettySize=auto;html=1;exitX=0.099;exitY=0.013;exitDx=0;exitDy=0;elbow=vertical;endArrow=oval;endFill=0;exitPerimeter=0;" parent="1" source="I5zNdM9nA91o0Woqpkqp-1" target="I5zNdM9nA91o0Woqpkqp-41" edge="1">
          <mxGeometry relative="1" as="geometry">
            <mxPoint x="385.19999999999993" y="60.599999999999994" as="sourcePoint" />
          </mxGeometry>
        </mxCell>
        <mxCell id="I5zNdM9nA91o0Woqpkqp-1" value="&lt;div&gt;TORNEO&lt;/div&gt;" style="rounded=0;arcSize=10;whiteSpace=wrap;html=1;align=center;shadow=0;" parent="1" vertex="1">
          <mxGeometry x="375" y="60" width="100" height="40" as="geometry" />
        </mxCell>
        <mxCell id="I5zNdM9nA91o0Woqpkqp-41" value="&lt;div style=&quot;font-size: 13px;&quot;&gt;&lt;font style=&quot;font-size: 10px;&quot;&gt;Composizione&lt;/font&gt;&lt;/div&gt;" style="text;strokeColor=none;align=center;fillColor=none;html=1;verticalAlign=middle;whiteSpace=wrap;rounded=0;" parent="1" vertex="1">
          <mxGeometry x="350" width="70" height="20" as="geometry" />
        </mxCell>
        <mxCell id="I5zNdM9nA91o0Woqpkqp-46" style="edgeStyle=orthogonalEdgeStyle;rounded=0;orthogonalLoop=1;jettySize=auto;html=1;elbow=vertical;endArrow=oval;endFill=0;exitX=0.403;exitY=0;exitDx=0;exitDy=0;exitPerimeter=0;" parent="1" target="I5zNdM9nA91o0Woqpkqp-47" edge="1">
          <mxGeometry relative="1" as="geometry">
            <mxPoint x="411.30000000000007" y="60" as="sourcePoint" />
          </mxGeometry>
        </mxCell>
        <mxCell id="I5zNdM9nA91o0Woqpkqp-47" value="&lt;font style=&quot;font-size: 10px;&quot;&gt;Tipologia&lt;/font&gt;" style="text;strokeColor=none;align=center;fillColor=none;html=1;verticalAlign=middle;whiteSpace=wrap;rounded=0;" parent="1" vertex="1">
          <mxGeometry x="376" y="20" width="70" height="20" as="geometry" />
        </mxCell>
        <mxCell id="I5zNdM9nA91o0Woqpkqp-48" style="edgeStyle=orthogonalEdgeStyle;rounded=0;orthogonalLoop=1;jettySize=auto;html=1;elbow=vertical;endArrow=oval;endFill=0;exitX=0.65;exitY=0.002;exitDx=0;exitDy=0;exitPerimeter=0;" parent="1" source="I5zNdM9nA91o0Woqpkqp-1" target="I5zNdM9nA91o0Woqpkqp-49" edge="1">
          <mxGeometry relative="1" as="geometry">
            <mxPoint x="441" y="59.68000000000001" as="sourcePoint" />
          </mxGeometry>
        </mxCell>
        <mxCell id="I5zNdM9nA91o0Woqpkqp-49" value="&lt;div&gt;&lt;font style=&quot;font-size: 10px;&quot;&gt;Nome&lt;/font&gt;&lt;/div&gt;" style="text;strokeColor=none;align=center;fillColor=none;html=1;verticalAlign=middle;whiteSpace=wrap;rounded=0;" parent="1" vertex="1">
          <mxGeometry x="405" width="70" height="20" as="geometry" />
        </mxCell>
        <mxCell id="I5zNdM9nA91o0Woqpkqp-50" style="edgeStyle=orthogonalEdgeStyle;rounded=0;orthogonalLoop=1;jettySize=auto;html=1;elbow=vertical;endArrow=oval;endFill=0;exitX=0.899;exitY=0.005;exitDx=0;exitDy=0;exitPerimeter=0;" parent="1" source="I5zNdM9nA91o0Woqpkqp-1" target="I5zNdM9nA91o0Woqpkqp-51" edge="1">
          <mxGeometry relative="1" as="geometry">
            <mxPoint x="510" y="50" as="sourcePoint" />
          </mxGeometry>
        </mxCell>
        <mxCell id="I5zNdM9nA91o0Woqpkqp-51" value="&lt;font style=&quot;font-size: 10px;&quot;&gt;Edizione&lt;/font&gt;" style="text;strokeColor=none;align=center;fillColor=none;html=1;verticalAlign=middle;whiteSpace=wrap;rounded=0;" parent="1" vertex="1">
          <mxGeometry x="430" y="20" width="70" height="20" as="geometry" />
        </mxCell>
        <mxCell id="I5zNdM9nA91o0Woqpkqp-52" value="" style="endArrow=oval;html=1;rounded=0;endFill=1;jumpStyle=none;" parent="1" target="I5zNdM9nA91o0Woqpkqp-53" edge="1">
          <mxGeometry relative="1" as="geometry">
            <mxPoint x="430" y="50" as="sourcePoint" />
            <mxPoint x="480" y="50" as="targetPoint" />
          </mxGeometry>
        </mxCell>
        <mxCell id="I5zNdM9nA91o0Woqpkqp-53" value="" style="shape=waypoint;sketch=0;fillStyle=solid;size=6;pointerEvents=1;points=[];fillColor=none;resizable=0;rotatable=0;perimeter=centerPerimeter;snapToPoint=1;" parent="1" vertex="1">
          <mxGeometry x="470" y="40" width="20" height="20" as="geometry" />
        </mxCell>
        <mxCell id="I5zNdM9nA91o0Woqpkqp-83" value="&lt;div style=&quot;font-size: 10px;&quot;&gt;(1,N)&lt;/div&gt;" style="edgeStyle=orthogonalEdgeStyle;rounded=0;orthogonalLoop=1;jettySize=auto;html=1;exitX=0;exitY=0.5;exitDx=0;exitDy=0;entryX=0.5;entryY=1;entryDx=0;entryDy=0;endArrow=none;endFill=0;targetPerimeterSpacing=0;labelPosition=center;verticalLabelPosition=middle;align=center;verticalAlign=middle;fontSize=10;" parent="1" source="I5zNdM9nA91o0Woqpkqp-81" target="I5zNdM9nA91o0Woqpkqp-1" edge="1">
          <mxGeometry x="-1" y="15" relative="1" as="geometry">
            <mxPoint as="offset" />
          </mxGeometry>
        </mxCell>
        <mxCell id="I5zNdM9nA91o0Woqpkqp-85" value="(1,1)" style="edgeStyle=orthogonalEdgeStyle;rounded=0;orthogonalLoop=1;jettySize=auto;html=1;exitX=1;exitY=0.5;exitDx=0;exitDy=0;entryX=0.5;entryY=0;entryDx=0;entryDy=0;endArrow=none;endFill=0;fontSize=10;" parent="1" source="I5zNdM9nA91o0Woqpkqp-81" target="I5zNdM9nA91o0Woqpkqp-84" edge="1">
          <mxGeometry x="-1" y="-15" relative="1" as="geometry">
            <mxPoint as="offset" />
          </mxGeometry>
        </mxCell>
        <mxCell id="I5zNdM9nA91o0Woqpkqp-81" value="" style="shape=rhombus;perimeter=rhombusPerimeter;whiteSpace=wrap;html=1;align=center;rotation=0;direction=south;rounded=0;" parent="1" vertex="1">
          <mxGeometry x="415" y="120" width="20" height="30" as="geometry" />
        </mxCell>
        <mxCell id="I5zNdM9nA91o0Woqpkqp-84" value="FASE" style="whiteSpace=wrap;html=1;align=center;" parent="1" vertex="1">
          <mxGeometry x="375" y="171" width="100" height="40" as="geometry" />
        </mxCell>
        <mxCell id="I5zNdM9nA91o0Woqpkqp-94" style="edgeStyle=orthogonalEdgeStyle;rounded=0;orthogonalLoop=1;jettySize=auto;html=1;endArrow=none;endFill=0;" parent="1" source="I5zNdM9nA91o0Woqpkqp-86" edge="1">
          <mxGeometry relative="1" as="geometry">
            <mxPoint x="430" y="240" as="targetPoint" />
            <Array as="points">
              <mxPoint x="325" y="240" />
            </Array>
          </mxGeometry>
        </mxCell>
        <mxCell id="I5zNdM9nA91o0Woqpkqp-86" value="&lt;div&gt;FASE A GIRONI&lt;/div&gt;" style="whiteSpace=wrap;html=1;align=center;" parent="1" vertex="1">
          <mxGeometry x="275" y="280" width="100" height="40" as="geometry" />
        </mxCell>
        <mxCell id="I5zNdM9nA91o0Woqpkqp-89" value="" style="shape=flexArrow;endArrow=classic;html=1;rounded=0;fillColor=#000000;gradientColor=none;fillStyle=auto;" parent="1" edge="1">
          <mxGeometry width="50" height="50" relative="1" as="geometry">
            <mxPoint x="430" y="241" as="sourcePoint" />
            <mxPoint x="430" y="211" as="targetPoint" />
          </mxGeometry>
        </mxCell>
        <mxCell id="I5zNdM9nA91o0Woqpkqp-95" style="edgeStyle=orthogonalEdgeStyle;rounded=0;orthogonalLoop=1;jettySize=auto;html=1;endArrow=none;endFill=0;" parent="1" source="I5zNdM9nA91o0Woqpkqp-91" edge="1">
          <mxGeometry relative="1" as="geometry">
            <mxPoint x="430" y="240" as="targetPoint" />
            <Array as="points">
              <mxPoint x="525" y="240" />
            </Array>
          </mxGeometry>
        </mxCell>
        <mxCell id="I5zNdM9nA91o0Woqpkqp-91" value="FASE DIRETTA" style="whiteSpace=wrap;html=1;align=center;" parent="1" vertex="1">
          <mxGeometry x="475" y="280" width="100" height="40" as="geometry" />
        </mxCell>
        <mxCell id="I5zNdM9nA91o0Woqpkqp-99" style="edgeStyle=orthogonalEdgeStyle;rounded=0;orthogonalLoop=1;jettySize=auto;html=1;entryX=0;entryY=0.75;entryDx=0;entryDy=0;startArrow=oval;startFill=0;endArrow=none;endFill=0;" parent="1" source="I5zNdM9nA91o0Woqpkqp-98" edge="1">
          <mxGeometry relative="1" as="geometry">
            <mxPoint x="275" y="300" as="targetPoint" />
          </mxGeometry>
        </mxCell>
        <mxCell id="I5zNdM9nA91o0Woqpkqp-98" value="&lt;font style=&quot;font-size: 10px;&quot;&gt;Numero scontri&lt;/font&gt;" style="text;strokeColor=none;align=center;fillColor=none;html=1;verticalAlign=middle;whiteSpace=wrap;rounded=0;" parent="1" vertex="1">
          <mxGeometry x="160" y="290" width="80" height="20" as="geometry" />
        </mxCell>
        <mxCell id="I5zNdM9nA91o0Woqpkqp-101" style="edgeStyle=orthogonalEdgeStyle;rounded=0;orthogonalLoop=1;jettySize=auto;html=1;entryX=0;entryY=0.25;entryDx=0;entryDy=0;startArrow=oval;startFill=1;endArrow=none;endFill=0;" parent="1" source="I5zNdM9nA91o0Woqpkqp-100" edge="1">
          <mxGeometry relative="1" as="geometry">
            <mxPoint x="375" y="191" as="targetPoint" />
          </mxGeometry>
        </mxCell>
        <mxCell id="I5zNdM9nA91o0Woqpkqp-100" value="&lt;div style=&quot;font-size: 10px;&quot;&gt;&lt;font style=&quot;font-size: 10px;&quot;&gt;Nome&lt;/font&gt;&lt;/div&gt;" style="text;strokeColor=none;align=center;fillColor=none;html=1;verticalAlign=middle;whiteSpace=wrap;rounded=0;" parent="1" vertex="1">
          <mxGeometry x="300" y="181" width="40" height="20" as="geometry" />
        </mxCell>
        <mxCell id="I5zNdM9nA91o0Woqpkqp-104" value="(1,N)" style="edgeStyle=orthogonalEdgeStyle;rounded=0;orthogonalLoop=1;jettySize=auto;html=1;exitX=0;exitY=0.5;exitDx=0;exitDy=0;entryX=0.5;entryY=1;entryDx=0;entryDy=0;endArrow=none;endFill=0;fontSize=10;" parent="1" source="I5zNdM9nA91o0Woqpkqp-102" target="I5zNdM9nA91o0Woqpkqp-86" edge="1">
          <mxGeometry x="-1" y="15" relative="1" as="geometry">
            <mxPoint as="offset" />
          </mxGeometry>
        </mxCell>
        <mxCell id="I5zNdM9nA91o0Woqpkqp-102" value="" style="shape=rhombus;perimeter=rhombusPerimeter;whiteSpace=wrap;html=1;align=center;rotation=0;direction=south;rounded=0;" parent="1" vertex="1">
          <mxGeometry x="315" y="340" width="20" height="30" as="geometry" />
        </mxCell>
        <mxCell id="I5zNdM9nA91o0Woqpkqp-105" value="GIRONE" style="whiteSpace=wrap;html=1;align=center;fontFamily=Helvetica;fontSize=11;fontColor=default;" parent="1" vertex="1">
          <mxGeometry x="275" y="390" width="100" height="40" as="geometry" />
        </mxCell>
        <mxCell id="I5zNdM9nA91o0Woqpkqp-108" style="edgeStyle=orthogonalEdgeStyle;shape=connector;rounded=0;orthogonalLoop=1;jettySize=auto;html=1;entryX=0;entryY=0.5;entryDx=0;entryDy=0;labelBackgroundColor=default;strokeColor=default;fontFamily=Helvetica;fontSize=11;fontColor=default;endArrow=none;endFill=0;startArrow=oval;startFill=1;" parent="1" source="I5zNdM9nA91o0Woqpkqp-107" target="I5zNdM9nA91o0Woqpkqp-105" edge="1">
          <mxGeometry relative="1" as="geometry" />
        </mxCell>
        <mxCell id="I5zNdM9nA91o0Woqpkqp-107" value="&lt;div style=&quot;font-size: 10px;&quot;&gt;&lt;font style=&quot;font-size: 10px;&quot;&gt;Nome&lt;/font&gt;&lt;/div&gt;" style="text;strokeColor=none;align=center;fillColor=none;html=1;verticalAlign=middle;whiteSpace=wrap;rounded=0;" parent="1" vertex="1">
          <mxGeometry x="200" y="400" width="40" height="20" as="geometry" />
        </mxCell>
        <mxCell id="I5zNdM9nA91o0Woqpkqp-211" style="edgeStyle=orthogonalEdgeStyle;shape=connector;rounded=0;orthogonalLoop=1;jettySize=auto;html=1;entryX=1;entryY=0.5;entryDx=0;entryDy=0;labelBackgroundColor=default;strokeColor=default;fontFamily=Helvetica;fontSize=11;fontColor=default;endArrow=none;endFill=0;" parent="1" source="I5zNdM9nA91o0Woqpkqp-110" target="I5zNdM9nA91o0Woqpkqp-206" edge="1">
          <mxGeometry relative="1" as="geometry">
            <Array as="points">
              <mxPoint x="360" y="540" />
              <mxPoint x="360" y="540" />
            </Array>
          </mxGeometry>
        </mxCell>
        <mxCell id="I5zNdM9nA91o0Woqpkqp-110" value="CLASSIFICA" style="whiteSpace=wrap;html=1;align=center;fontFamily=Helvetica;fontSize=11;fontColor=default;" parent="1" vertex="1">
          <mxGeometry x="250" y="520" width="100" height="40" as="geometry" />
        </mxCell>
        <mxCell id="I5zNdM9nA91o0Woqpkqp-126" style="edgeStyle=orthogonalEdgeStyle;shape=connector;rounded=0;orthogonalLoop=1;jettySize=auto;html=1;exitX=0.25;exitY=0;exitDx=0;exitDy=0;entryX=1;entryY=0.5;entryDx=0;entryDy=0;labelBackgroundColor=default;strokeColor=default;fontFamily=Helvetica;fontSize=11;fontColor=default;endArrow=none;endFill=0;" parent="1" source="I5zNdM9nA91o0Woqpkqp-111" target="I5zNdM9nA91o0Woqpkqp-120" edge="1">
          <mxGeometry relative="1" as="geometry">
            <Array as="points">
              <mxPoint x="472" y="480" />
            </Array>
          </mxGeometry>
        </mxCell>
        <mxCell id="I5zNdM9nA91o0Woqpkqp-131" style="edgeStyle=orthogonalEdgeStyle;shape=connector;rounded=0;orthogonalLoop=1;jettySize=auto;html=1;exitX=0.75;exitY=0;exitDx=0;exitDy=0;labelBackgroundColor=default;strokeColor=default;fontFamily=Helvetica;fontSize=11;fontColor=default;endArrow=none;endFill=0;" parent="1" source="I5zNdM9nA91o0Woqpkqp-111" edge="1">
          <mxGeometry relative="1" as="geometry">
            <mxPoint x="600" y="480" as="targetPoint" />
            <Array as="points">
              <mxPoint x="520" y="520" />
              <mxPoint x="520" y="480" />
            </Array>
          </mxGeometry>
        </mxCell>
        <mxCell id="I5zNdM9nA91o0Woqpkqp-111" value="GIORNATA DI GIRONE" style="whiteSpace=wrap;html=1;align=center;fontFamily=Helvetica;fontSize=11;fontColor=default;" parent="1" vertex="1">
          <mxGeometry x="447" y="520" width="100" height="40" as="geometry" />
        </mxCell>
        <mxCell id="I5zNdM9nA91o0Woqpkqp-124" value="(1,1)" style="edgeStyle=orthogonalEdgeStyle;shape=connector;rounded=0;orthogonalLoop=1;jettySize=auto;html=1;entryX=1;entryY=0.5;entryDx=0;entryDy=0;labelBackgroundColor=default;strokeColor=default;fontFamily=Helvetica;fontSize=10;fontColor=default;endArrow=none;endFill=0;exitX=0.5;exitY=0;exitDx=0;exitDy=0;" parent="1" source="I5zNdM9nA91o0Woqpkqp-112" target="I5zNdM9nA91o0Woqpkqp-121" edge="1">
          <mxGeometry x="0.8095" y="-10" relative="1" as="geometry">
            <Array as="points">
              <mxPoint x="110" y="480" />
            </Array>
            <mxPoint as="offset" />
          </mxGeometry>
        </mxCell>
        <mxCell id="I5zNdM9nA91o0Woqpkqp-148" style="edgeStyle=orthogonalEdgeStyle;shape=connector;rounded=0;orthogonalLoop=1;jettySize=auto;html=1;entryX=1;entryY=0.5;entryDx=0;entryDy=0;labelBackgroundColor=default;strokeColor=default;fontFamily=Helvetica;fontSize=11;fontColor=default;endArrow=none;endFill=0;exitX=0.25;exitY=0;exitDx=0;exitDy=0;" parent="1" edge="1">
          <mxGeometry relative="1" as="geometry">
            <mxPoint x="155" y="650" as="sourcePoint" />
            <mxPoint x="155" y="630" as="targetPoint" />
            <Array as="points">
              <mxPoint x="155" y="650" />
              <mxPoint x="155" y="650" />
            </Array>
          </mxGeometry>
        </mxCell>
        <mxCell id="I5zNdM9nA91o0Woqpkqp-175" style="edgeStyle=orthogonalEdgeStyle;shape=connector;rounded=0;orthogonalLoop=1;jettySize=auto;html=1;entryX=1;entryY=0.5;entryDx=0;entryDy=0;labelBackgroundColor=default;strokeColor=default;fontFamily=Helvetica;fontSize=11;fontColor=default;endArrow=none;endFill=0;exitX=1;exitY=0.75;exitDx=0;exitDy=0;" parent="1" source="I5zNdM9nA91o0Woqpkqp-113" target="I5zNdM9nA91o0Woqpkqp-174" edge="1">
          <mxGeometry relative="1" as="geometry">
            <Array as="points">
              <mxPoint x="250" y="680" />
              <mxPoint x="250" y="690" />
            </Array>
          </mxGeometry>
        </mxCell>
        <mxCell id="I5zNdM9nA91o0Woqpkqp-259" style="edgeStyle=orthogonalEdgeStyle;shape=connector;rounded=0;orthogonalLoop=1;jettySize=auto;html=1;entryX=1;entryY=0.5;entryDx=0;entryDy=0;labelBackgroundColor=default;strokeColor=default;fontFamily=Helvetica;fontSize=11;fontColor=default;endArrow=none;endFill=0;exitX=0.87;exitY=0.983;exitDx=0;exitDy=0;exitPerimeter=0;" parent="1" source="I5zNdM9nA91o0Woqpkqp-112" target="I5zNdM9nA91o0Woqpkqp-258" edge="1">
          <mxGeometry relative="1" as="geometry">
            <Array as="points">
              <mxPoint x="147" y="590" />
            </Array>
          </mxGeometry>
        </mxCell>
        <mxCell id="I5zNdM9nA91o0Woqpkqp-262" style="edgeStyle=orthogonalEdgeStyle;shape=connector;rounded=0;orthogonalLoop=1;jettySize=auto;html=1;labelBackgroundColor=default;strokeColor=default;fontFamily=Helvetica;fontSize=11;fontColor=default;endArrow=oval;endFill=0;entryX=0.75;entryY=0;entryDx=0;entryDy=0;jumpStyle=none;startArrow=none;startFill=0;" parent="1" source="I5zNdM9nA91o0Woqpkqp-113" target="I5zNdM9nA91o0Woqpkqp-256" edge="1">
          <mxGeometry relative="1" as="geometry">
            <Array as="points">
              <mxPoint x="180" y="712" />
              <mxPoint x="190" y="712" />
            </Array>
          </mxGeometry>
        </mxCell>
        <mxCell id="I5zNdM9nA91o0Woqpkqp-113" value="&lt;div&gt;FORMAZIONE&lt;/div&gt;" style="whiteSpace=wrap;html=1;align=center;fontFamily=Helvetica;fontSize=11;fontColor=default;" parent="1" vertex="1">
          <mxGeometry x="130" y="650" width="100" height="40" as="geometry" />
        </mxCell>
        <mxCell id="I5zNdM9nA91o0Woqpkqp-153" style="edgeStyle=orthogonalEdgeStyle;shape=connector;rounded=0;orthogonalLoop=1;jettySize=auto;html=1;labelBackgroundColor=default;strokeColor=default;fontFamily=Helvetica;fontSize=11;fontColor=default;endArrow=none;endFill=0;entryX=1;entryY=0.5;entryDx=0;entryDy=0;exitX=0.25;exitY=0;exitDx=0;exitDy=0;" parent="1" source="I5zNdM9nA91o0Woqpkqp-114" target="I5zNdM9nA91o0Woqpkqp-152" edge="1">
          <mxGeometry relative="1" as="geometry">
            <mxPoint x="190" y="670" as="targetPoint" />
            <Array as="points">
              <mxPoint x="45" y="860" />
              <mxPoint x="15" y="860" />
            </Array>
          </mxGeometry>
        </mxCell>
        <mxCell id="I5zNdM9nA91o0Woqpkqp-165" style="edgeStyle=orthogonalEdgeStyle;shape=connector;rounded=0;orthogonalLoop=1;jettySize=auto;html=1;entryX=0.75;entryY=1;entryDx=0;entryDy=0;labelBackgroundColor=default;strokeColor=default;fontFamily=Helvetica;fontSize=11;fontColor=default;endArrow=none;endFill=0;" parent="1" source="I5zNdM9nA91o0Woqpkqp-167" target="I5zNdM9nA91o0Woqpkqp-115" edge="1">
          <mxGeometry relative="1" as="geometry">
            <Array as="points">
              <mxPoint x="705" y="710" />
              <mxPoint x="705" y="710" />
            </Array>
          </mxGeometry>
        </mxCell>
        <mxCell id="I5zNdM9nA91o0Woqpkqp-219" style="edgeStyle=orthogonalEdgeStyle;shape=connector;rounded=0;orthogonalLoop=1;jettySize=auto;html=1;exitX=0.25;exitY=1;exitDx=0;exitDy=0;entryX=0.5;entryY=0;entryDx=0;entryDy=0;labelBackgroundColor=default;strokeColor=default;fontFamily=Helvetica;fontSize=11;fontColor=default;endArrow=none;endFill=0;" parent="1" source="I5zNdM9nA91o0Woqpkqp-114" target="I5zNdM9nA91o0Woqpkqp-218" edge="1">
          <mxGeometry relative="1" as="geometry" />
        </mxCell>
        <mxCell id="I5zNdM9nA91o0Woqpkqp-114" value="CAMPO" style="whiteSpace=wrap;html=1;align=center;fontFamily=Helvetica;fontSize=11;fontColor=default;" parent="1" vertex="1">
          <mxGeometry x="20" y="880" width="100" height="40" as="geometry" />
        </mxCell>
        <mxCell id="I5zNdM9nA91o0Woqpkqp-178" style="edgeStyle=orthogonalEdgeStyle;shape=connector;rounded=0;orthogonalLoop=1;jettySize=auto;html=1;entryX=0;entryY=0.5;entryDx=0;entryDy=0;labelBackgroundColor=default;strokeColor=default;fontFamily=Helvetica;fontSize=11;fontColor=default;endArrow=none;endFill=0;" parent="1" source="I5zNdM9nA91o0Woqpkqp-115" target="I5zNdM9nA91o0Woqpkqp-173" edge="1">
          <mxGeometry relative="1" as="geometry">
            <Array as="points">
              <mxPoint x="610" y="670" />
              <mxPoint x="610" y="670" />
            </Array>
          </mxGeometry>
        </mxCell>
        <mxCell id="I5zNdM9nA91o0Woqpkqp-115" value="&lt;div&gt;PARTITA&lt;/div&gt;" style="whiteSpace=wrap;html=1;align=center;fontFamily=Helvetica;fontSize=11;fontColor=default;" parent="1" vertex="1">
          <mxGeometry x="630" y="650" width="100" height="40" as="geometry" />
        </mxCell>
        <mxCell id="I5zNdM9nA91o0Woqpkqp-203" style="edgeStyle=orthogonalEdgeStyle;shape=connector;rounded=0;orthogonalLoop=1;jettySize=auto;html=1;labelBackgroundColor=default;strokeColor=default;fontFamily=Helvetica;fontSize=11;fontColor=default;endArrow=none;endFill=0;exitX=0.25;exitY=0;exitDx=0;exitDy=0;" parent="1" source="I5zNdM9nA91o0Woqpkqp-116" edge="1">
          <mxGeometry relative="1" as="geometry">
            <mxPoint x="370" y="790" as="targetPoint" />
            <Array as="points">
              <mxPoint x="445" y="790" />
              <mxPoint x="370" y="790" />
            </Array>
          </mxGeometry>
        </mxCell>
        <mxCell id="I5zNdM9nA91o0Woqpkqp-116" value="&lt;div&gt;ARBITRO&lt;/div&gt;" style="whiteSpace=wrap;html=1;align=center;fontFamily=Helvetica;fontSize=11;fontColor=default;" parent="1" vertex="1">
          <mxGeometry x="420" y="820" width="100" height="40" as="geometry" />
        </mxCell>
        <mxCell id="I5zNdM9nA91o0Woqpkqp-176" style="edgeStyle=orthogonalEdgeStyle;shape=connector;rounded=0;orthogonalLoop=1;jettySize=auto;html=1;entryX=0;entryY=0.5;entryDx=0;entryDy=0;labelBackgroundColor=default;strokeColor=default;fontFamily=Helvetica;fontSize=11;fontColor=default;endArrow=none;endFill=0;exitX=0;exitY=0.75;exitDx=0;exitDy=0;" parent="1" source="I5zNdM9nA91o0Woqpkqp-117" target="I5zNdM9nA91o0Woqpkqp-174" edge="1">
          <mxGeometry relative="1" as="geometry">
            <Array as="points">
              <mxPoint x="420" y="680" />
              <mxPoint x="420" y="690" />
            </Array>
          </mxGeometry>
        </mxCell>
        <mxCell id="I5zNdM9nA91o0Woqpkqp-177" style="edgeStyle=orthogonalEdgeStyle;shape=connector;rounded=0;orthogonalLoop=1;jettySize=auto;html=1;entryX=1;entryY=0.5;entryDx=0;entryDy=0;labelBackgroundColor=default;strokeColor=default;fontFamily=Helvetica;fontSize=11;fontColor=default;endArrow=none;endFill=0;" parent="1" source="I5zNdM9nA91o0Woqpkqp-117" target="I5zNdM9nA91o0Woqpkqp-173" edge="1">
          <mxGeometry relative="1" as="geometry">
            <Array as="points">
              <mxPoint x="550" y="670" />
              <mxPoint x="550" y="670" />
            </Array>
          </mxGeometry>
        </mxCell>
        <mxCell id="I5zNdM9nA91o0Woqpkqp-117" value="&lt;div&gt;RISULTATO PARTITA&lt;/div&gt;" style="whiteSpace=wrap;html=1;align=center;fontFamily=Helvetica;fontSize=11;fontColor=default;" parent="1" vertex="1">
          <mxGeometry x="430" y="650" width="100" height="40" as="geometry" />
        </mxCell>
        <mxCell id="I5zNdM9nA91o0Woqpkqp-132" style="edgeStyle=orthogonalEdgeStyle;shape=connector;rounded=0;orthogonalLoop=1;jettySize=auto;html=1;labelBackgroundColor=default;strokeColor=default;fontFamily=Helvetica;fontSize=11;fontColor=default;endArrow=none;endFill=0;" parent="1" source="I5zNdM9nA91o0Woqpkqp-118" edge="1">
          <mxGeometry relative="1" as="geometry">
            <mxPoint x="590" y="480" as="targetPoint" />
            <Array as="points">
              <mxPoint x="680" y="480" />
            </Array>
          </mxGeometry>
        </mxCell>
        <mxCell id="I5zNdM9nA91o0Woqpkqp-136" style="edgeStyle=orthogonalEdgeStyle;shape=connector;rounded=0;orthogonalLoop=1;jettySize=auto;html=1;exitX=0.75;exitY=0;exitDx=0;exitDy=0;entryX=0;entryY=0.5;entryDx=0;entryDy=0;labelBackgroundColor=default;strokeColor=default;fontFamily=Helvetica;fontSize=11;fontColor=default;endArrow=none;endFill=0;" parent="1" source="I5zNdM9nA91o0Woqpkqp-118" target="I5zNdM9nA91o0Woqpkqp-134" edge="1">
          <mxGeometry relative="1" as="geometry" />
        </mxCell>
        <mxCell id="I5zNdM9nA91o0Woqpkqp-118" value="&lt;div&gt;GIORNATA DIRETTA&lt;/div&gt;" style="whiteSpace=wrap;html=1;align=center;fontFamily=Helvetica;fontSize=11;fontColor=default;" parent="1" vertex="1">
          <mxGeometry x="647" y="520" width="100" height="40" as="geometry" />
        </mxCell>
        <mxCell id="I5zNdM9nA91o0Woqpkqp-182" style="edgeStyle=orthogonalEdgeStyle;shape=connector;rounded=0;orthogonalLoop=1;jettySize=auto;html=1;exitX=0;exitY=0.5;exitDx=0;exitDy=0;labelBackgroundColor=default;strokeColor=default;fontFamily=Helvetica;fontSize=11;fontColor=default;endArrow=none;endFill=0;jumpStyle=arc;jumpSize=10;" parent="1" source="I5zNdM9nA91o0Woqpkqp-119" target="I5zNdM9nA91o0Woqpkqp-117" edge="1">
          <mxGeometry relative="1" as="geometry">
            <Array as="points">
              <mxPoint x="430" y="430" />
              <mxPoint x="430" y="620" />
              <mxPoint x="480" y="620" />
            </Array>
          </mxGeometry>
        </mxCell>
        <mxCell id="I5zNdM9nA91o0Woqpkqp-119" value="&lt;div&gt;GIORNATA&lt;/div&gt;" style="whiteSpace=wrap;html=1;align=center;fontFamily=Helvetica;fontSize=11;fontColor=default;" parent="1" vertex="1">
          <mxGeometry x="547" y="410" width="100" height="40" as="geometry" />
        </mxCell>
        <mxCell id="I5zNdM9nA91o0Woqpkqp-127" style="edgeStyle=orthogonalEdgeStyle;shape=connector;rounded=0;orthogonalLoop=1;jettySize=auto;html=1;exitX=0;exitY=0.5;exitDx=0;exitDy=0;entryX=0.75;entryY=1;entryDx=0;entryDy=0;labelBackgroundColor=default;strokeColor=default;fontFamily=Helvetica;fontSize=11;fontColor=default;endArrow=none;endFill=0;" parent="1" source="I5zNdM9nA91o0Woqpkqp-120" target="I5zNdM9nA91o0Woqpkqp-105" edge="1">
          <mxGeometry relative="1" as="geometry" />
        </mxCell>
        <mxCell id="I5zNdM9nA91o0Woqpkqp-120" value="" style="shape=rhombus;perimeter=rhombusPerimeter;whiteSpace=wrap;html=1;align=center;rotation=0;direction=south;rounded=0;" parent="1" vertex="1">
          <mxGeometry x="340" y="450" width="20" height="30" as="geometry" />
        </mxCell>
        <mxCell id="I5zNdM9nA91o0Woqpkqp-125" value="(2,N)" style="edgeStyle=orthogonalEdgeStyle;shape=connector;rounded=0;orthogonalLoop=1;jettySize=auto;html=1;entryX=0.25;entryY=1;entryDx=0;entryDy=0;labelBackgroundColor=default;strokeColor=default;fontFamily=Helvetica;fontSize=10;fontColor=default;endArrow=none;endFill=0;" parent="1" source="I5zNdM9nA91o0Woqpkqp-121" target="I5zNdM9nA91o0Woqpkqp-105" edge="1">
          <mxGeometry x="-1" y="20" relative="1" as="geometry">
            <Array as="points">
              <mxPoint x="300" y="430" />
            </Array>
            <mxPoint as="offset" />
          </mxGeometry>
        </mxCell>
        <mxCell id="I5zNdM9nA91o0Woqpkqp-121" value="" style="shape=rhombus;perimeter=rhombusPerimeter;whiteSpace=wrap;html=1;align=center;rotation=0;direction=south;rounded=0;" parent="1" vertex="1">
          <mxGeometry x="290" y="450" width="20" height="30" as="geometry" />
        </mxCell>
        <mxCell id="I5zNdM9nA91o0Woqpkqp-130" value="" style="shape=flexArrow;endArrow=classic;html=1;rounded=0;fillColor=#000000;gradientColor=none;fillStyle=auto;entryX=0.5;entryY=1;entryDx=0;entryDy=0;" parent="1" target="I5zNdM9nA91o0Woqpkqp-119" edge="1">
          <mxGeometry width="50" height="50" relative="1" as="geometry">
            <mxPoint x="597" y="480" as="sourcePoint" />
            <mxPoint x="602" y="450" as="targetPoint" />
          </mxGeometry>
        </mxCell>
        <mxCell id="I5zNdM9nA91o0Woqpkqp-137" style="edgeStyle=orthogonalEdgeStyle;shape=connector;rounded=0;orthogonalLoop=1;jettySize=auto;html=1;entryX=0.5;entryY=1;entryDx=0;entryDy=0;labelBackgroundColor=default;strokeColor=default;fontFamily=Helvetica;fontSize=11;fontColor=default;endArrow=none;endFill=0;" parent="1" source="I5zNdM9nA91o0Woqpkqp-134" target="I5zNdM9nA91o0Woqpkqp-91" edge="1">
          <mxGeometry relative="1" as="geometry" />
        </mxCell>
        <mxCell id="I5zNdM9nA91o0Woqpkqp-134" value="" style="shape=rhombus;perimeter=rhombusPerimeter;whiteSpace=wrap;html=1;align=center;rotation=0;direction=west;rounded=0;" parent="1" vertex="1">
          <mxGeometry x="610" y="350" width="30" height="20" as="geometry" />
        </mxCell>
        <mxCell id="I5zNdM9nA91o0Woqpkqp-186" style="edgeStyle=orthogonalEdgeStyle;shape=connector;rounded=0;orthogonalLoop=1;jettySize=auto;html=1;exitX=0;exitY=0.5;exitDx=0;exitDy=0;entryX=0.652;entryY=1.03;entryDx=0;entryDy=0;entryPerimeter=0;labelBackgroundColor=default;strokeColor=default;fontFamily=Helvetica;fontSize=11;fontColor=default;endArrow=none;endFill=0;" parent="1" source="I5zNdM9nA91o0Woqpkqp-147" target="I5zNdM9nA91o0Woqpkqp-112" edge="1">
          <mxGeometry relative="1" as="geometry">
            <Array as="points">
              <mxPoint x="125" y="600" />
            </Array>
          </mxGeometry>
        </mxCell>
        <mxCell id="I5zNdM9nA91o0Woqpkqp-147" value="" style="shape=rhombus;perimeter=rhombusPerimeter;whiteSpace=wrap;html=1;align=center;rotation=0;direction=south;rounded=0;" parent="1" vertex="1">
          <mxGeometry x="145" y="600" width="20" height="30" as="geometry" />
        </mxCell>
        <mxCell id="I5zNdM9nA91o0Woqpkqp-187" style="edgeStyle=orthogonalEdgeStyle;shape=connector;rounded=0;orthogonalLoop=1;jettySize=auto;html=1;exitX=0;exitY=0.5;exitDx=0;exitDy=0;entryX=0.128;entryY=1.018;entryDx=0;entryDy=0;labelBackgroundColor=default;strokeColor=default;fontFamily=Helvetica;fontSize=11;fontColor=default;endArrow=none;endFill=0;entryPerimeter=0;" parent="1" source="I5zNdM9nA91o0Woqpkqp-152" target="I5zNdM9nA91o0Woqpkqp-112" edge="1">
          <mxGeometry relative="1" as="geometry">
            <Array as="points">
              <mxPoint x="15" y="580" />
              <mxPoint x="73" y="580" />
              <mxPoint x="73" y="561" />
            </Array>
          </mxGeometry>
        </mxCell>
        <mxCell id="I5zNdM9nA91o0Woqpkqp-152" value="" style="shape=rhombus;perimeter=rhombusPerimeter;whiteSpace=wrap;html=1;align=center;rotation=0;direction=south;rounded=0;" parent="1" vertex="1">
          <mxGeometry x="5" y="600" width="20" height="30" as="geometry" />
        </mxCell>
        <mxCell id="I5zNdM9nA91o0Woqpkqp-162" style="edgeStyle=orthogonalEdgeStyle;shape=connector;rounded=0;orthogonalLoop=1;jettySize=auto;html=1;entryX=1;entryY=0.5;entryDx=0;entryDy=0;labelBackgroundColor=default;strokeColor=default;fontFamily=Helvetica;fontSize=11;fontColor=default;endArrow=none;endFill=0;exitX=0.25;exitY=0;exitDx=0;exitDy=0;" parent="1" source="I5zNdM9nA91o0Woqpkqp-156" target="I5zNdM9nA91o0Woqpkqp-157" edge="1">
          <mxGeometry relative="1" as="geometry">
            <Array as="points">
              <mxPoint x="235" y="780" />
              <mxPoint x="220" y="780" />
            </Array>
          </mxGeometry>
        </mxCell>
        <mxCell id="I5zNdM9nA91o0Woqpkqp-202" style="edgeStyle=orthogonalEdgeStyle;shape=connector;rounded=0;orthogonalLoop=1;jettySize=auto;html=1;labelBackgroundColor=default;strokeColor=default;fontFamily=Helvetica;fontSize=11;fontColor=default;endArrow=none;endFill=0;exitX=0.75;exitY=0;exitDx=0;exitDy=0;" parent="1" source="I5zNdM9nA91o0Woqpkqp-156" edge="1">
          <mxGeometry relative="1" as="geometry">
            <mxPoint x="380" y="790" as="targetPoint" />
            <Array as="points">
              <mxPoint x="285" y="790" />
            </Array>
          </mxGeometry>
        </mxCell>
        <mxCell id="I5zNdM9nA91o0Woqpkqp-156" value="&lt;div&gt;GIOCATORE&lt;/div&gt;" style="whiteSpace=wrap;html=1;align=center;fontFamily=Helvetica;fontSize=11;fontColor=default;" parent="1" vertex="1">
          <mxGeometry x="210" y="820" width="100" height="40" as="geometry" />
        </mxCell>
        <mxCell id="I5zNdM9nA91o0Woqpkqp-163" style="edgeStyle=orthogonalEdgeStyle;shape=connector;rounded=0;orthogonalLoop=1;jettySize=auto;html=1;entryX=0.75;entryY=1;entryDx=0;entryDy=0;labelBackgroundColor=default;strokeColor=default;fontFamily=Helvetica;fontSize=11;fontColor=default;endArrow=none;endFill=0;exitX=0;exitY=0.5;exitDx=0;exitDy=0;" parent="1" source="I5zNdM9nA91o0Woqpkqp-157" target="I5zNdM9nA91o0Woqpkqp-113" edge="1">
          <mxGeometry relative="1" as="geometry">
            <Array as="points">
              <mxPoint x="220" y="710" />
              <mxPoint x="205" y="710" />
            </Array>
          </mxGeometry>
        </mxCell>
        <mxCell id="I5zNdM9nA91o0Woqpkqp-157" value="" style="shape=rhombus;perimeter=rhombusPerimeter;whiteSpace=wrap;html=1;align=center;rotation=0;direction=south;rounded=0;" parent="1" vertex="1">
          <mxGeometry x="210" y="725" width="20" height="30" as="geometry" />
        </mxCell>
        <mxCell id="I5zNdM9nA91o0Woqpkqp-179" style="edgeStyle=orthogonalEdgeStyle;shape=connector;rounded=0;orthogonalLoop=1;jettySize=auto;html=1;entryX=0.75;entryY=0;entryDx=0;entryDy=0;labelBackgroundColor=default;strokeColor=default;fontFamily=Helvetica;fontSize=11;fontColor=default;endArrow=none;endFill=0;" parent="1" source="I5zNdM9nA91o0Woqpkqp-168" target="I5zNdM9nA91o0Woqpkqp-116" edge="1">
          <mxGeometry relative="1" as="geometry">
            <Array as="points">
              <mxPoint x="655" y="790" />
              <mxPoint x="500" y="790" />
              <mxPoint x="500" y="820" />
            </Array>
          </mxGeometry>
        </mxCell>
        <mxCell id="I5zNdM9nA91o0Woqpkqp-193" style="edgeStyle=orthogonalEdgeStyle;shape=connector;rounded=0;orthogonalLoop=1;jettySize=auto;html=1;entryX=0.25;entryY=1;entryDx=0;entryDy=0;labelBackgroundColor=default;strokeColor=default;fontFamily=Helvetica;fontSize=11;fontColor=default;endArrow=none;endFill=0;" parent="1" source="I5zNdM9nA91o0Woqpkqp-168" target="I5zNdM9nA91o0Woqpkqp-115" edge="1">
          <mxGeometry relative="1" as="geometry">
            <Array as="points">
              <mxPoint x="655" y="710" />
              <mxPoint x="655" y="710" />
            </Array>
          </mxGeometry>
        </mxCell>
        <mxCell id="I5zNdM9nA91o0Woqpkqp-168" value="" style="shape=rhombus;perimeter=rhombusPerimeter;whiteSpace=wrap;html=1;align=center;rotation=0;direction=south;rounded=0;" parent="1" vertex="1">
          <mxGeometry x="645" y="720" width="20" height="30" as="geometry" />
        </mxCell>
        <mxCell id="I5zNdM9nA91o0Woqpkqp-172" value="" style="edgeStyle=orthogonalEdgeStyle;shape=connector;rounded=0;orthogonalLoop=1;jettySize=auto;html=1;entryX=1;entryY=0.5;entryDx=0;entryDy=0;labelBackgroundColor=default;strokeColor=default;fontFamily=Helvetica;fontSize=11;fontColor=default;endArrow=none;endFill=0;" parent="1" source="I5zNdM9nA91o0Woqpkqp-114" target="I5zNdM9nA91o0Woqpkqp-167" edge="1">
          <mxGeometry relative="1" as="geometry">
            <mxPoint x="240" y="870" as="sourcePoint" />
            <mxPoint x="565" y="670" as="targetPoint" />
          </mxGeometry>
        </mxCell>
        <mxCell id="I5zNdM9nA91o0Woqpkqp-167" value="" style="shape=rhombus;perimeter=rhombusPerimeter;whiteSpace=wrap;html=1;align=center;rotation=0;direction=south;rounded=0;" parent="1" vertex="1">
          <mxGeometry x="695" y="720" width="20" height="30" as="geometry" />
        </mxCell>
        <mxCell id="I5zNdM9nA91o0Woqpkqp-173" value="" style="shape=rhombus;perimeter=rhombusPerimeter;whiteSpace=wrap;html=1;align=center;rotation=0;direction=west;rounded=0;" parent="1" vertex="1">
          <mxGeometry x="564.5" y="660" width="30" height="20" as="geometry" />
        </mxCell>
        <mxCell id="I5zNdM9nA91o0Woqpkqp-174" value="" style="shape=rhombus;perimeter=rhombusPerimeter;whiteSpace=wrap;html=1;align=center;rotation=0;direction=west;rounded=0;" parent="1" vertex="1">
          <mxGeometry x="315" y="680" width="30" height="20" as="geometry" />
        </mxCell>
        <mxCell id="I5zNdM9nA91o0Woqpkqp-185" value="" style="group" parent="1" vertex="1" connectable="0">
          <mxGeometry x="-10" y="520" width="170" height="40" as="geometry" />
        </mxCell>
        <mxCell id="I5zNdM9nA91o0Woqpkqp-112" value="SQUADRA" style="whiteSpace=wrap;html=1;align=center;fontFamily=Helvetica;fontSize=11;fontColor=default;" parent="I5zNdM9nA91o0Woqpkqp-185" vertex="1">
          <mxGeometry x="70" width="100" height="40" as="geometry" />
        </mxCell>
        <mxCell id="I5zNdM9nA91o0Woqpkqp-139" value="&lt;div style=&quot;font-size: 10px;&quot;&gt;&lt;font style=&quot;font-size: 10px;&quot;&gt;Nome&lt;/font&gt;&lt;/div&gt;" style="text;strokeColor=none;align=center;fillColor=none;html=1;verticalAlign=middle;whiteSpace=wrap;rounded=0;" parent="I5zNdM9nA91o0Woqpkqp-185" vertex="1">
          <mxGeometry width="40" height="20" as="geometry" />
        </mxCell>
        <mxCell id="I5zNdM9nA91o0Woqpkqp-141" value="&lt;font style=&quot;font-size: 10px;&quot;&gt;Colori&lt;/font&gt;" style="text;strokeColor=none;align=center;fillColor=none;html=1;verticalAlign=middle;whiteSpace=wrap;rounded=0;" parent="I5zNdM9nA91o0Woqpkqp-185" vertex="1">
          <mxGeometry y="20" width="40" height="20" as="geometry" />
        </mxCell>
        <mxCell id="I5zNdM9nA91o0Woqpkqp-143" style="edgeStyle=orthogonalEdgeStyle;shape=connector;rounded=0;orthogonalLoop=1;jettySize=auto;html=1;entryX=0;entryY=0.25;entryDx=0;entryDy=0;labelBackgroundColor=default;strokeColor=default;fontFamily=Helvetica;fontSize=11;fontColor=default;endArrow=none;endFill=0;startArrow=oval;startFill=1;" parent="I5zNdM9nA91o0Woqpkqp-185" source="I5zNdM9nA91o0Woqpkqp-139" target="I5zNdM9nA91o0Woqpkqp-112" edge="1">
          <mxGeometry relative="1" as="geometry" />
        </mxCell>
        <mxCell id="I5zNdM9nA91o0Woqpkqp-144" style="edgeStyle=orthogonalEdgeStyle;shape=connector;rounded=0;orthogonalLoop=1;jettySize=auto;html=1;entryX=0;entryY=0.75;entryDx=0;entryDy=0;labelBackgroundColor=default;strokeColor=default;fontFamily=Helvetica;fontSize=11;fontColor=default;endArrow=none;endFill=0;startArrow=oval;startFill=0;" parent="I5zNdM9nA91o0Woqpkqp-185" source="I5zNdM9nA91o0Woqpkqp-141" target="I5zNdM9nA91o0Woqpkqp-112" edge="1">
          <mxGeometry relative="1" as="geometry" />
        </mxCell>
        <mxCell id="I5zNdM9nA91o0Woqpkqp-194" value="&lt;div&gt;TESSERATO&lt;/div&gt;" style="whiteSpace=wrap;html=1;align=center;fontFamily=Helvetica;fontSize=11;fontColor=default;" parent="1" vertex="1">
          <mxGeometry x="325" y="715" width="100" height="40" as="geometry" />
        </mxCell>
        <mxCell id="I5zNdM9nA91o0Woqpkqp-197" value="" style="shape=flexArrow;endArrow=classic;html=1;rounded=0;fillColor=#000000;gradientColor=none;fillStyle=auto;entryX=0.5;entryY=1;entryDx=0;entryDy=0;" parent="1" edge="1">
          <mxGeometry width="50" height="50" relative="1" as="geometry">
            <mxPoint x="374" y="790" as="sourcePoint" />
            <mxPoint x="374" y="755" as="targetPoint" />
          </mxGeometry>
        </mxCell>
        <mxCell id="I5zNdM9nA91o0Woqpkqp-206" value="" style="shape=rhombus;perimeter=rhombusPerimeter;whiteSpace=wrap;html=1;align=center;rotation=0;direction=west;rounded=0;" parent="1" vertex="1">
          <mxGeometry x="380" y="530" width="30" height="20" as="geometry" />
        </mxCell>
        <mxCell id="I5zNdM9nA91o0Woqpkqp-209" style="edgeStyle=orthogonalEdgeStyle;shape=connector;rounded=0;orthogonalLoop=1;jettySize=auto;html=1;entryX=1;entryY=0.5;entryDx=0;entryDy=0;labelBackgroundColor=default;strokeColor=default;fontFamily=Helvetica;fontSize=11;fontColor=default;endArrow=none;endFill=0;" parent="1" source="I5zNdM9nA91o0Woqpkqp-207" target="I5zNdM9nA91o0Woqpkqp-112" edge="1">
          <mxGeometry relative="1" as="geometry">
            <Array as="points">
              <mxPoint x="170" y="540" />
              <mxPoint x="170" y="540" />
            </Array>
          </mxGeometry>
        </mxCell>
        <mxCell id="I5zNdM9nA91o0Woqpkqp-210" style="edgeStyle=orthogonalEdgeStyle;shape=connector;rounded=0;orthogonalLoop=1;jettySize=auto;html=1;entryX=0;entryY=0.5;entryDx=0;entryDy=0;labelBackgroundColor=default;strokeColor=default;fontFamily=Helvetica;fontSize=11;fontColor=default;endArrow=none;endFill=0;" parent="1" source="I5zNdM9nA91o0Woqpkqp-207" target="I5zNdM9nA91o0Woqpkqp-110" edge="1">
          <mxGeometry relative="1" as="geometry">
            <Array as="points">
              <mxPoint x="230" y="540" />
              <mxPoint x="230" y="540" />
            </Array>
          </mxGeometry>
        </mxCell>
        <mxCell id="I5zNdM9nA91o0Woqpkqp-207" value="" style="shape=rhombus;perimeter=rhombusPerimeter;whiteSpace=wrap;html=1;align=center;rotation=0;direction=west;rounded=0;" parent="1" vertex="1">
          <mxGeometry x="190" y="530" width="30" height="20" as="geometry" />
        </mxCell>
        <mxCell id="I5zNdM9nA91o0Woqpkqp-214" style="edgeStyle=orthogonalEdgeStyle;shape=connector;rounded=0;orthogonalLoop=1;jettySize=auto;html=1;entryX=1;entryY=0.5;entryDx=0;entryDy=0;labelBackgroundColor=default;strokeColor=default;fontFamily=Helvetica;fontSize=11;fontColor=default;endArrow=none;endFill=0;startArrow=oval;startFill=0;" parent="1" source="I5zNdM9nA91o0Woqpkqp-213" target="I5zNdM9nA91o0Woqpkqp-91" edge="1">
          <mxGeometry relative="1" as="geometry" />
        </mxCell>
        <mxCell id="I5zNdM9nA91o0Woqpkqp-213" value="&lt;div style=&quot;font-size: 11px;&quot;&gt;&lt;font style=&quot;font-size: 10px;&quot;&gt;Numero turni&lt;/font&gt;&lt;/div&gt;" style="text;strokeColor=none;align=center;fillColor=none;html=1;verticalAlign=middle;whiteSpace=wrap;rounded=0;" parent="1" vertex="1">
          <mxGeometry x="615" y="290" width="80" height="20" as="geometry" />
        </mxCell>
        <mxCell id="I5zNdM9nA91o0Woqpkqp-218" value="&lt;div&gt;Indirizzo&lt;/div&gt;" style="ellipse;whiteSpace=wrap;html=1;align=center;fontFamily=Helvetica;fontSize=11;fontColor=default;" parent="1" vertex="1">
          <mxGeometry x="-65" y="960" width="100" height="20" as="geometry" />
        </mxCell>
        <mxCell id="I5zNdM9nA91o0Woqpkqp-231" style="edgeStyle=orthogonalEdgeStyle;shape=connector;rounded=0;orthogonalLoop=1;jettySize=auto;html=1;exitX=0.5;exitY=0;exitDx=0;exitDy=0;entryX=0.5;entryY=1;entryDx=0;entryDy=0;labelBackgroundColor=default;strokeColor=default;fontFamily=Helvetica;fontSize=11;fontColor=default;endArrow=none;endFill=0;startArrow=oval;startFill=0;" parent="1" source="I5zNdM9nA91o0Woqpkqp-221" target="I5zNdM9nA91o0Woqpkqp-218" edge="1">
          <mxGeometry relative="1" as="geometry" />
        </mxCell>
        <mxCell id="I5zNdM9nA91o0Woqpkqp-221" value="&lt;div style=&quot;font-size: 10px;&quot;&gt;&lt;font style=&quot;font-size: 10px;&quot;&gt;Comune&lt;/font&gt;&lt;/div&gt;" style="text;strokeColor=none;align=center;fillColor=none;html=1;verticalAlign=middle;whiteSpace=wrap;rounded=0;fontSize=11;fontFamily=Helvetica;fontColor=default;" parent="1" vertex="1">
          <mxGeometry x="-45" y="1010" width="60" height="30" as="geometry" />
        </mxCell>
        <mxCell id="I5zNdM9nA91o0Woqpkqp-230" style="edgeStyle=orthogonalEdgeStyle;shape=connector;rounded=0;orthogonalLoop=1;jettySize=auto;html=1;entryX=0.178;entryY=0.877;entryDx=0;entryDy=0;labelBackgroundColor=default;strokeColor=default;fontFamily=Helvetica;fontSize=11;fontColor=default;endArrow=none;endFill=0;entryPerimeter=0;startArrow=oval;startFill=0;" parent="1" source="I5zNdM9nA91o0Woqpkqp-222" target="I5zNdM9nA91o0Woqpkqp-218" edge="1">
          <mxGeometry relative="1" as="geometry" />
        </mxCell>
        <mxCell id="I5zNdM9nA91o0Woqpkqp-222" value="&lt;div style=&quot;font-size: 10px;&quot;&gt;&lt;font style=&quot;font-size: 10px;&quot;&gt;Via&lt;/font&gt;&lt;/div&gt;" style="text;strokeColor=none;align=center;fillColor=none;html=1;verticalAlign=middle;whiteSpace=wrap;rounded=0;fontSize=11;fontFamily=Helvetica;fontColor=default;" parent="1" vertex="1">
          <mxGeometry x="-77" y="1000" width="60" height="20" as="geometry" />
        </mxCell>
        <mxCell id="I5zNdM9nA91o0Woqpkqp-232" style="edgeStyle=orthogonalEdgeStyle;shape=connector;rounded=0;orthogonalLoop=1;jettySize=auto;html=1;entryX=0.801;entryY=0.9;entryDx=0;entryDy=0;labelBackgroundColor=default;strokeColor=default;fontFamily=Helvetica;fontSize=11;fontColor=default;endArrow=none;endFill=0;entryPerimeter=0;startArrow=oval;startFill=0;" parent="1" source="I5zNdM9nA91o0Woqpkqp-224" target="I5zNdM9nA91o0Woqpkqp-218" edge="1">
          <mxGeometry relative="1" as="geometry" />
        </mxCell>
        <mxCell id="I5zNdM9nA91o0Woqpkqp-224" value="Civico" style="text;strokeColor=none;align=center;fillColor=none;html=1;verticalAlign=middle;whiteSpace=wrap;rounded=0;fontSize=11;fontFamily=Helvetica;fontColor=default;" parent="1" vertex="1">
          <mxGeometry x="-15" y="1000" width="60" height="20" as="geometry" />
        </mxCell>
        <mxCell id="I5zNdM9nA91o0Woqpkqp-233" style="edgeStyle=orthogonalEdgeStyle;shape=connector;rounded=0;orthogonalLoop=1;jettySize=auto;html=1;entryX=0.5;entryY=1;entryDx=0;entryDy=0;labelBackgroundColor=default;strokeColor=default;fontFamily=Helvetica;fontSize=11;fontColor=default;endArrow=none;endFill=0;startArrow=oval;startFill=1;" parent="1" source="I5zNdM9nA91o0Woqpkqp-226" target="I5zNdM9nA91o0Woqpkqp-114" edge="1">
          <mxGeometry relative="1" as="geometry" />
        </mxCell>
        <mxCell id="I5zNdM9nA91o0Woqpkqp-226" value="&lt;div style=&quot;font-size: 10px;&quot;&gt;&lt;font style=&quot;font-size: 10px;&quot;&gt;Nome&lt;/font&gt;&lt;/div&gt;" style="text;strokeColor=none;align=center;fillColor=none;html=1;verticalAlign=middle;whiteSpace=wrap;rounded=0;fontSize=11;fontFamily=Helvetica;fontColor=default;" parent="1" vertex="1">
          <mxGeometry x="40" y="955" width="60" height="30" as="geometry" />
        </mxCell>
        <mxCell id="I5zNdM9nA91o0Woqpkqp-234" style="edgeStyle=orthogonalEdgeStyle;shape=connector;rounded=0;orthogonalLoop=1;jettySize=auto;html=1;entryX=0.75;entryY=1;entryDx=0;entryDy=0;labelBackgroundColor=default;strokeColor=default;fontFamily=Helvetica;fontSize=11;fontColor=default;endArrow=none;endFill=0;startArrow=oval;startFill=0;" parent="1" source="I5zNdM9nA91o0Woqpkqp-227" target="I5zNdM9nA91o0Woqpkqp-114" edge="1">
          <mxGeometry relative="1" as="geometry" />
        </mxCell>
        <mxCell id="I5zNdM9nA91o0Woqpkqp-227" value="Telefono" style="text;strokeColor=none;align=center;fillColor=none;html=1;verticalAlign=middle;whiteSpace=wrap;rounded=0;fontSize=11;fontFamily=Helvetica;fontColor=default;" parent="1" vertex="1">
          <mxGeometry x="105" y="960" width="60" height="30" as="geometry" />
        </mxCell>
        <mxCell id="I5zNdM9nA91o0Woqpkqp-240" style="edgeStyle=orthogonalEdgeStyle;shape=connector;rounded=0;orthogonalLoop=1;jettySize=auto;html=1;entryX=0;entryY=0.25;entryDx=0;entryDy=0;labelBackgroundColor=default;strokeColor=default;fontFamily=Helvetica;fontSize=11;fontColor=default;endArrow=none;endFill=0;startArrow=oval;startFill=0;" parent="1" source="I5zNdM9nA91o0Woqpkqp-235" target="I5zNdM9nA91o0Woqpkqp-194" edge="1">
          <mxGeometry relative="1" as="geometry" />
        </mxCell>
        <mxCell id="I5zNdM9nA91o0Woqpkqp-235" value="&lt;font style=&quot;font-size: 10px;&quot;&gt;Nome&lt;/font&gt;" style="text;strokeColor=none;align=center;fillColor=none;html=1;verticalAlign=middle;whiteSpace=wrap;rounded=0;fontSize=11;fontFamily=Helvetica;fontColor=default;" parent="1" vertex="1">
          <mxGeometry x="240" y="700" width="60" height="30" as="geometry" />
        </mxCell>
        <mxCell id="I5zNdM9nA91o0Woqpkqp-241" style="edgeStyle=orthogonalEdgeStyle;shape=connector;rounded=0;orthogonalLoop=1;jettySize=auto;html=1;entryX=0;entryY=0.5;entryDx=0;entryDy=0;labelBackgroundColor=default;strokeColor=default;fontFamily=Helvetica;fontSize=11;fontColor=default;endArrow=none;endFill=0;startArrow=oval;startFill=0;" parent="1" source="I5zNdM9nA91o0Woqpkqp-236" target="I5zNdM9nA91o0Woqpkqp-194" edge="1">
          <mxGeometry relative="1" as="geometry" />
        </mxCell>
        <mxCell id="I5zNdM9nA91o0Woqpkqp-236" value="Cognome" style="text;strokeColor=none;align=center;fillColor=none;html=1;verticalAlign=middle;whiteSpace=wrap;rounded=0;fontSize=11;fontFamily=Helvetica;fontColor=default;" parent="1" vertex="1">
          <mxGeometry x="240" y="720" width="60" height="30" as="geometry" />
        </mxCell>
        <mxCell id="I5zNdM9nA91o0Woqpkqp-243" style="edgeStyle=orthogonalEdgeStyle;shape=connector;rounded=0;orthogonalLoop=1;jettySize=auto;html=1;entryX=0;entryY=0.75;entryDx=0;entryDy=0;labelBackgroundColor=default;strokeColor=default;fontFamily=Helvetica;fontSize=11;fontColor=default;endArrow=none;endFill=0;startArrow=oval;startFill=0;" parent="1" source="I5zNdM9nA91o0Woqpkqp-237" target="I5zNdM9nA91o0Woqpkqp-194" edge="1">
          <mxGeometry relative="1" as="geometry" />
        </mxCell>
        <mxCell id="I5zNdM9nA91o0Woqpkqp-237" value="&lt;font style=&quot;font-size: 10px;&quot;&gt;Genere&lt;/font&gt;" style="text;strokeColor=none;align=center;fillColor=none;html=1;verticalAlign=middle;whiteSpace=wrap;rounded=0;fontSize=11;fontFamily=Helvetica;fontColor=default;" parent="1" vertex="1">
          <mxGeometry x="240" y="740" width="60" height="30" as="geometry" />
        </mxCell>
        <mxCell id="I5zNdM9nA91o0Woqpkqp-244" style="edgeStyle=orthogonalEdgeStyle;shape=connector;rounded=0;orthogonalLoop=1;jettySize=auto;html=1;entryX=1;entryY=0.25;entryDx=0;entryDy=0;labelBackgroundColor=default;strokeColor=default;fontFamily=Helvetica;fontSize=11;fontColor=default;endArrow=none;endFill=0;startArrow=oval;startFill=0;" parent="1" source="I5zNdM9nA91o0Woqpkqp-238" target="I5zNdM9nA91o0Woqpkqp-194" edge="1">
          <mxGeometry relative="1" as="geometry" />
        </mxCell>
        <mxCell id="I5zNdM9nA91o0Woqpkqp-238" value="&lt;div&gt;Data di nascita&lt;/div&gt;" style="text;strokeColor=none;align=center;fillColor=none;html=1;verticalAlign=middle;whiteSpace=wrap;rounded=0;fontSize=11;fontFamily=Helvetica;fontColor=default;" parent="1" vertex="1">
          <mxGeometry x="450" y="705" width="60" height="30" as="geometry" />
        </mxCell>
        <mxCell id="I5zNdM9nA91o0Woqpkqp-245" style="edgeStyle=orthogonalEdgeStyle;shape=connector;rounded=0;orthogonalLoop=1;jettySize=auto;html=1;entryX=1;entryY=0.75;entryDx=0;entryDy=0;labelBackgroundColor=default;strokeColor=default;fontFamily=Helvetica;fontSize=11;fontColor=default;endArrow=none;endFill=0;startArrow=oval;startFill=0;" parent="1" source="I5zNdM9nA91o0Woqpkqp-239" target="I5zNdM9nA91o0Woqpkqp-194" edge="1">
          <mxGeometry relative="1" as="geometry" />
        </mxCell>
        <mxCell id="I5zNdM9nA91o0Woqpkqp-239" value="&lt;div&gt;Numero di tesseramneto&lt;/div&gt;" style="text;strokeColor=none;align=center;fillColor=none;html=1;verticalAlign=middle;whiteSpace=wrap;rounded=0;fontSize=11;fontFamily=Helvetica;fontColor=default;" parent="1" vertex="1">
          <mxGeometry x="450" y="735" width="80" height="30" as="geometry" />
        </mxCell>
        <mxCell id="I5zNdM9nA91o0Woqpkqp-251" style="edgeStyle=orthogonalEdgeStyle;shape=connector;rounded=0;orthogonalLoop=1;jettySize=auto;html=1;entryX=0.315;entryY=0.985;entryDx=0;entryDy=0;labelBackgroundColor=default;strokeColor=default;fontFamily=Helvetica;fontSize=11;fontColor=default;endArrow=none;endFill=0;entryPerimeter=0;" parent="1" source="I5zNdM9nA91o0Woqpkqp-250" target="I5zNdM9nA91o0Woqpkqp-112" edge="1">
          <mxGeometry relative="1" as="geometry">
            <Array as="points">
              <mxPoint x="90" y="559" />
            </Array>
          </mxGeometry>
        </mxCell>
        <mxCell id="I5zNdM9nA91o0Woqpkqp-252" style="edgeStyle=orthogonalEdgeStyle;shape=connector;rounded=0;orthogonalLoop=1;jettySize=auto;html=1;labelBackgroundColor=default;strokeColor=default;fontFamily=Helvetica;fontSize=11;fontColor=default;endArrow=none;endFill=0;entryX=0;entryY=0.5;entryDx=0;entryDy=0;" parent="1" source="I5zNdM9nA91o0Woqpkqp-250" target="I5zNdM9nA91o0Woqpkqp-156" edge="1">
          <mxGeometry relative="1" as="geometry">
            <mxPoint x="109.99999999999977" y="840" as="targetPoint" />
            <Array as="points">
              <mxPoint x="90" y="840" />
            </Array>
          </mxGeometry>
        </mxCell>
        <mxCell id="I5zNdM9nA91o0Woqpkqp-265" style="edgeStyle=orthogonalEdgeStyle;shape=connector;rounded=0;orthogonalLoop=1;jettySize=auto;html=1;exitX=0.5;exitY=1;exitDx=0;exitDy=0;entryX=0.5;entryY=0;entryDx=0;entryDy=0;labelBackgroundColor=default;strokeColor=default;fontFamily=Helvetica;fontSize=11;fontColor=default;endArrow=oval;endFill=0;startArrow=none;startFill=0;" parent="1" source="I5zNdM9nA91o0Woqpkqp-250" target="I5zNdM9nA91o0Woqpkqp-263" edge="1">
          <mxGeometry relative="1" as="geometry" />
        </mxCell>
        <mxCell id="I5zNdM9nA91o0Woqpkqp-250" value="" style="shape=rhombus;perimeter=rhombusPerimeter;whiteSpace=wrap;html=1;align=center;rotation=0;direction=south;rounded=0;" parent="1" vertex="1">
          <mxGeometry x="80" y="600" width="20" height="30" as="geometry" />
        </mxCell>
        <mxCell id="I5zNdM9nA91o0Woqpkqp-256" value="&lt;font style=&quot;font-size: 10px;&quot;&gt;Capitano&lt;/font&gt;" style="text;strokeColor=none;align=center;fillColor=none;html=1;verticalAlign=middle;whiteSpace=wrap;rounded=0;fontSize=11;fontFamily=Helvetica;fontColor=default;" parent="1" vertex="1">
          <mxGeometry x="145" y="735" width="60" height="30" as="geometry" />
        </mxCell>
        <mxCell id="I5zNdM9nA91o0Woqpkqp-261" style="edgeStyle=orthogonalEdgeStyle;shape=connector;rounded=0;orthogonalLoop=1;jettySize=auto;html=1;entryX=0.25;entryY=1;entryDx=0;entryDy=0;labelBackgroundColor=default;strokeColor=default;fontFamily=Helvetica;fontSize=11;fontColor=default;endArrow=none;endFill=0;startArrow=oval;startFill=0;" parent="1" source="I5zNdM9nA91o0Woqpkqp-257" target="I5zNdM9nA91o0Woqpkqp-113" edge="1">
          <mxGeometry relative="1" as="geometry">
            <Array as="points">
              <mxPoint x="143" y="700" />
              <mxPoint x="155" y="700" />
            </Array>
          </mxGeometry>
        </mxCell>
        <mxCell id="I5zNdM9nA91o0Woqpkqp-257" value="&lt;div style=&quot;font-size: 10px;&quot;&gt;&lt;font style=&quot;font-size: 10px;&quot;&gt;Vice-capitano&lt;/font&gt;&lt;/div&gt;" style="text;strokeColor=none;align=center;fillColor=none;html=1;verticalAlign=middle;whiteSpace=wrap;rounded=0;fontSize=11;fontFamily=Helvetica;fontColor=default;" parent="1" vertex="1">
          <mxGeometry x="110" y="715" width="65" height="30" as="geometry" />
        </mxCell>
        <mxCell id="I5zNdM9nA91o0Woqpkqp-260" style="edgeStyle=orthogonalEdgeStyle;shape=connector;rounded=0;orthogonalLoop=1;jettySize=auto;html=1;entryX=0.5;entryY=0;entryDx=0;entryDy=0;labelBackgroundColor=default;strokeColor=default;fontFamily=Helvetica;fontSize=11;fontColor=default;endArrow=none;endFill=0;jumpStyle=arc;jumpSize=10;" parent="1" source="I5zNdM9nA91o0Woqpkqp-258" target="I5zNdM9nA91o0Woqpkqp-115" edge="1">
          <mxGeometry relative="1" as="geometry">
            <Array as="points">
              <mxPoint x="310" y="590" />
              <mxPoint x="680" y="590" />
            </Array>
          </mxGeometry>
        </mxCell>
        <mxCell id="I5zNdM9nA91o0Woqpkqp-258" value="" style="shape=rhombus;perimeter=rhombusPerimeter;whiteSpace=wrap;html=1;align=center;rotation=0;direction=west;rounded=0;" parent="1" vertex="1">
          <mxGeometry x="240" y="580" width="30" height="20" as="geometry" />
        </mxCell>
        <mxCell id="I5zNdM9nA91o0Woqpkqp-263" value="&lt;font style=&quot;font-size: 10px;&quot;&gt;Numero di maglia&lt;/font&gt;" style="text;strokeColor=none;align=center;fillColor=none;html=1;verticalAlign=middle;whiteSpace=wrap;rounded=0;fontSize=10;fontFamily=Helvetica;fontColor=default;" parent="1" vertex="1">
          <mxGeometry x="25" y="640" width="60" height="30" as="geometry" />
        </mxCell>
        <mxCell id="I5zNdM9nA91o0Woqpkqp-268" style="edgeStyle=orthogonalEdgeStyle;shape=connector;rounded=0;orthogonalLoop=1;jettySize=auto;html=1;entryX=0.25;entryY=0;entryDx=0;entryDy=0;labelBackgroundColor=default;strokeColor=default;fontFamily=Helvetica;fontSize=11;fontColor=default;endArrow=none;endFill=0;startArrow=oval;startFill=0;exitX=0.75;exitY=1;exitDx=0;exitDy=0;" parent="1" source="I5zNdM9nA91o0Woqpkqp-267" target="I5zNdM9nA91o0Woqpkqp-117" edge="1">
          <mxGeometry relative="1" as="geometry">
            <Array as="points">
              <mxPoint x="411" y="640" />
              <mxPoint x="455" y="640" />
            </Array>
          </mxGeometry>
        </mxCell>
        <mxCell id="I5zNdM9nA91o0Woqpkqp-267" value="&lt;div style=&quot;font-size: 10px;&quot;&gt;&lt;font style=&quot;font-size: 10px;&quot;&gt;Punteggio&lt;/font&gt;&lt;/div&gt;" style="text;strokeColor=none;align=center;fillColor=none;html=1;verticalAlign=middle;whiteSpace=wrap;rounded=0;fontSize=11;fontFamily=Helvetica;fontColor=default;" parent="1" vertex="1">
          <mxGeometry x="370" y="610" width="55" height="20" as="geometry" />
        </mxCell>
        <mxCell id="I5zNdM9nA91o0Woqpkqp-273" style="edgeStyle=orthogonalEdgeStyle;shape=connector;rounded=0;orthogonalLoop=1;jettySize=auto;html=1;entryX=1;entryY=1;entryDx=0;entryDy=0;labelBackgroundColor=default;strokeColor=default;fontFamily=Helvetica;fontSize=11;fontColor=default;endArrow=none;endFill=0;startArrow=oval;startFill=0;" parent="1" source="I5zNdM9nA91o0Woqpkqp-269" target="I5zNdM9nA91o0Woqpkqp-174" edge="1">
          <mxGeometry relative="1" as="geometry">
            <Array as="points">
              <mxPoint x="280" y="685" />
            </Array>
          </mxGeometry>
        </mxCell>
        <mxCell id="I5zNdM9nA91o0Woqpkqp-269" value="&lt;font style=&quot;font-size: 10px;&quot;&gt;Marcatori&lt;/font&gt;" style="text;strokeColor=none;align=center;fillColor=none;html=1;verticalAlign=middle;whiteSpace=wrap;rounded=0;fontSize=11;fontFamily=Helvetica;fontColor=default;" parent="1" vertex="1">
          <mxGeometry x="240" y="655" width="45" height="15" as="geometry" />
        </mxCell>
        <mxCell id="I5zNdM9nA91o0Woqpkqp-277" style="edgeStyle=orthogonalEdgeStyle;shape=connector;rounded=0;orthogonalLoop=1;jettySize=auto;html=1;entryX=0.585;entryY=0.9;entryDx=0;entryDy=0;labelBackgroundColor=default;strokeColor=default;fontFamily=Helvetica;fontSize=11;fontColor=default;endArrow=none;endFill=0;entryPerimeter=0;startArrow=oval;startFill=0;exitX=0.5;exitY=1;exitDx=0;exitDy=0;" parent="1" source="I5zNdM9nA91o0Woqpkqp-270" target="I5zNdM9nA91o0Woqpkqp-174" edge="1">
          <mxGeometry relative="1" as="geometry">
            <Array as="points">
              <mxPoint x="300" y="682" />
            </Array>
          </mxGeometry>
        </mxCell>
        <mxCell id="I5zNdM9nA91o0Woqpkqp-270" value="&lt;div style=&quot;font-size: 10px;&quot;&gt;&lt;font style=&quot;font-size: 10px;&quot;&gt;Assistmen&lt;/font&gt;&lt;/div&gt;" style="text;strokeColor=none;align=center;fillColor=none;html=1;verticalAlign=middle;whiteSpace=wrap;rounded=0;fontSize=11;fontFamily=Helvetica;fontColor=default;" parent="1" vertex="1">
          <mxGeometry x="275" y="635" width="50" height="15" as="geometry" />
        </mxCell>
        <mxCell id="I5zNdM9nA91o0Woqpkqp-278" style="edgeStyle=orthogonalEdgeStyle;shape=connector;rounded=0;orthogonalLoop=1;jettySize=auto;html=1;entryX=0.399;entryY=0.897;entryDx=0;entryDy=0;labelBackgroundColor=default;strokeColor=default;fontFamily=Helvetica;fontSize=11;fontColor=default;endArrow=none;endFill=0;entryPerimeter=0;startArrow=oval;startFill=0;exitX=0.5;exitY=1;exitDx=0;exitDy=0;" parent="1" source="I5zNdM9nA91o0Woqpkqp-271" target="I5zNdM9nA91o0Woqpkqp-174" edge="1">
          <mxGeometry relative="1" as="geometry">
            <Array as="points">
              <mxPoint x="360" y="682" />
            </Array>
          </mxGeometry>
        </mxCell>
        <mxCell id="I5zNdM9nA91o0Woqpkqp-271" value="&lt;font style=&quot;font-size: 10px;&quot;&gt;Ammoniti&lt;/font&gt;" style="text;strokeColor=none;align=center;fillColor=none;html=1;verticalAlign=middle;whiteSpace=wrap;rounded=0;fontSize=11;fontFamily=Helvetica;fontColor=default;" parent="1" vertex="1">
          <mxGeometry x="340" y="635" width="40" height="15" as="geometry" />
        </mxCell>
        <mxCell id="I5zNdM9nA91o0Woqpkqp-279" style="edgeStyle=orthogonalEdgeStyle;shape=connector;rounded=0;orthogonalLoop=1;jettySize=auto;html=1;entryX=0;entryY=1;entryDx=0;entryDy=0;labelBackgroundColor=default;strokeColor=default;fontFamily=Helvetica;fontSize=11;fontColor=default;endArrow=none;endFill=0;startArrow=oval;startFill=0;exitX=0.25;exitY=1;exitDx=0;exitDy=0;" parent="1" source="I5zNdM9nA91o0Woqpkqp-272" target="I5zNdM9nA91o0Woqpkqp-174" edge="1">
          <mxGeometry relative="1" as="geometry">
            <Array as="points">
              <mxPoint x="386" y="685" />
            </Array>
          </mxGeometry>
        </mxCell>
        <mxCell id="I5zNdM9nA91o0Woqpkqp-272" value="&lt;font style=&quot;font-size: 10px;&quot;&gt;Espulsi&lt;/font&gt;" style="text;strokeColor=none;align=center;fillColor=none;html=1;verticalAlign=middle;whiteSpace=wrap;rounded=0;fontSize=11;fontFamily=Helvetica;fontColor=default;" parent="1" vertex="1">
          <mxGeometry x="377.5" y="655" width="35" height="15" as="geometry" />
        </mxCell>
        <mxCell id="I5zNdM9nA91o0Woqpkqp-282" style="edgeStyle=orthogonalEdgeStyle;shape=connector;rounded=0;orthogonalLoop=1;jettySize=auto;html=1;entryX=1;entryY=0.5;entryDx=0;entryDy=0;labelBackgroundColor=default;strokeColor=default;fontFamily=Helvetica;fontSize=11;fontColor=default;endArrow=none;endFill=0;startArrow=oval;startFill=0;" parent="1" source="I5zNdM9nA91o0Woqpkqp-280" target="I5zNdM9nA91o0Woqpkqp-115" edge="1">
          <mxGeometry relative="1" as="geometry" />
        </mxCell>
        <mxCell id="I5zNdM9nA91o0Woqpkqp-280" value="&lt;font style=&quot;font-size: 10px;&quot;&gt;Data&lt;/font&gt;" style="text;strokeColor=none;align=center;fillColor=none;html=1;verticalAlign=middle;whiteSpace=wrap;rounded=0;fontSize=11;fontFamily=Helvetica;fontColor=default;" parent="1" vertex="1">
          <mxGeometry x="760" y="655" width="37" height="30" as="geometry" />
        </mxCell>
        <mxCell id="I5zNdM9nA91o0Woqpkqp-284" style="edgeStyle=orthogonalEdgeStyle;shape=connector;rounded=0;orthogonalLoop=1;jettySize=auto;html=1;entryX=1;entryY=0.5;entryDx=0;entryDy=0;labelBackgroundColor=default;strokeColor=default;fontFamily=Helvetica;fontSize=11;fontColor=default;endArrow=none;endFill=0;startArrow=oval;startFill=0;" parent="1" source="I5zNdM9nA91o0Woqpkqp-283" target="I5zNdM9nA91o0Woqpkqp-118" edge="1">
          <mxGeometry relative="1" as="geometry" />
        </mxCell>
        <mxCell id="I5zNdM9nA91o0Woqpkqp-283" value="&lt;div style=&quot;font-size: 10px;&quot;&gt;&lt;font style=&quot;font-size: 10px;&quot;&gt;Turno&lt;/font&gt;&lt;/div&gt;" style="text;strokeColor=none;align=center;fillColor=none;html=1;verticalAlign=middle;whiteSpace=wrap;rounded=0;fontSize=11;fontFamily=Helvetica;fontColor=default;" parent="1" vertex="1">
          <mxGeometry x="780" y="525" width="50" height="30" as="geometry" />
        </mxCell>
        <mxCell id="I5zNdM9nA91o0Woqpkqp-286" style="edgeStyle=orthogonalEdgeStyle;shape=connector;rounded=0;orthogonalLoop=1;jettySize=auto;html=1;entryX=0.5;entryY=0;entryDx=0;entryDy=0;labelBackgroundColor=default;strokeColor=default;fontFamily=Helvetica;fontSize=11;fontColor=default;endArrow=none;endFill=0;startArrow=oval;startFill=0;exitX=1;exitY=0.5;exitDx=0;exitDy=0;" parent="1" source="I5zNdM9nA91o0Woqpkqp-285" target="I5zNdM9nA91o0Woqpkqp-119" edge="1">
          <mxGeometry relative="1" as="geometry">
            <Array as="points">
              <mxPoint x="597" y="385" />
            </Array>
          </mxGeometry>
        </mxCell>
        <mxCell id="I5zNdM9nA91o0Woqpkqp-285" value="&lt;font style=&quot;font-size: 10px;&quot;&gt;Numero&lt;/font&gt;" style="text;strokeColor=none;align=center;fillColor=none;html=1;verticalAlign=middle;whiteSpace=wrap;rounded=0;fontSize=11;fontFamily=Helvetica;fontColor=default;" parent="1" vertex="1">
          <mxGeometry x="487" y="370" width="53" height="30" as="geometry" />
        </mxCell>
      </root>
    </mxGraphModel>
  </diagram>
</mxfile>
